<?xml version="1.0" encoding="UTF-8"?>
<svg xmlns="http://www.w3.org/2000/svg" width="1003.06" height="400" xmlns:xlink="http://www.w3.org/1999/xlink" viewBox="0 0 1003.06 400">
  <defs>
    <linearGradient id="b" data-name="Безымянный градиент 93" x1="3.49" y1="198.07" x2="289.32" y2="198.07" gradientUnits="userSpaceOnUse">
      <stop offset="0" stop-color="#8dd2f3"/>
      <stop offset=".05" stop-color="#80cef1"/>
      <stop offset=".19" stop-color="#65c6ef"/>
      <stop offset=".34" stop-color="#50c0ee"/>
      <stop offset=".5" stop-color="#41bcec"/>
      <stop offset=".7" stop-color="#38b9ec"/>
      <stop offset="1" stop-color="#36b9ec"/>
    </linearGradient>
    <linearGradient id="c" data-name="Безымянный градиент 90" x1="88.51" y1="271.89" x2="331.78" y2="107.79" gradientUnits="userSpaceOnUse">
      <stop offset="0" stop-color="#009cde"/>
      <stop offset="1" stop-color="#005ba7"/>
    </linearGradient>
    <linearGradient id="d" data-name="Безымянный градиент 84" x1="198.58" y1="-55.29" x2="443.25" y2="-220.35" gradientTransform="translate(54.48 482.59) rotate(-45) scale(.87 .82)" gradientUnits="userSpaceOnUse">
      <stop offset="0" stop-color="#6ec6f1"/>
      <stop offset="1" stop-color="#0073bb"/>
    </linearGradient>
    <linearGradient id="e" data-name="Безымянный градиент 99" x1="294.29" y1="110.87" x2="308.73" y2="36.55" gradientTransform="translate(155.62 79.55) scale(.39 .45)" gradientUnits="userSpaceOnUse">
      <stop offset="0" stop-color="#5b9bd4"/>
      <stop offset="1" stop-color="#0072bb"/>
    </linearGradient>
  </defs>
  <g id="a" data-name="Слой 1">
    <g>
      <path d="M139.21,62.5l142.27,142.79c10.45,10.49,10.45,27.49,0,37.98l-90.05,90.38c-10.45,10.49-27.39,10.49-37.84,0L11.33,190.85c-10.45-10.49-10.45-27.49,0-37.98L101.37,62.5c10.45-10.49,27.39-10.49,37.84,0Z" style="fill: url(#b);"/>
      <path d="M336.4,188.15l-144.81,145.35c-10.54,10.56-27.6,10.56-38.14,0L44.64,224.28,208.51,59.8c10.53-10.56,27.6-10.56,38.13,0l26.76,26.84c-2.69,.97-5.23,2.54-7.38,4.7l-17.86,17.92c-7.82,7.86-7.82,20.7,0,28.55l.94,.94c7.82,7.86,20.63,7.86,28.45,0l17.86-17.92c2.15-2.17,3.72-4.7,4.69-7.41l36.32,36.46c10.53,10.56,10.53,27.7,0,38.27Z" style="fill: url(#c);"/>
      <path d="M281.47,243.29l-90.53,90.86c-10.17,10.21-26.66,10.21-36.84,0L44.8,224.45c-.09-.09-.09-.24,0-.33L172.36,96.09c.09-.09,.24-.09,.33,0l108.78,109.18c10.46,10.5,10.46,27.52,0,38.02Z" style="fill: url(#d);"/>
      <rect x="247.31" y="101.37" width="49.66" height="26.63" rx="10.02" ry="10.02" transform="translate(-1.38 226.02) rotate(-45)" style="fill: url(#e);"/>
    </g>
  </g>
  <g id="f" data-name="Слой 3">
    <g>
      <path d="M418.04,184.43V52.17h24.56V184.43h-24.56Z" style="fill: #0084c2;"/>
      <path d="M533.28,82.4c8.06,0,15.27,1.58,21.63,4.72,6.36,3.15,11.37,7.97,15.02,14.45,3.65,6.49,5.48,14.83,5.48,25.03v57.81h-23.62v-54.79c0-8.94-2.11-15.62-6.33-20.03-4.22-4.41-10.11-6.61-17.66-6.61-5.54,0-10.46,1.13-14.74,3.4-4.28,2.27-7.59,5.64-9.92,10.11-2.33,4.47-3.49,10.11-3.49,16.91v51.01h-23.62V83.54h22.48v27.21l-3.97-8.31c3.52-6.42,8.66-11.37,15.4-14.83,6.74-3.46,14.52-5.2,23.33-5.2Z" style="fill: #0084c2;"/>
      <path d="M630.39,184.43l-43.26-100.89h24.56l37.22,88.99h-12.09l38.54-88.99h22.67l-43.27,100.89h-24.37Z" style="fill: #0084c2;"/>
      <path d="M757.35,185.75c-11.21,0-21-2.23-29.38-6.71-8.38-4.47-14.86-10.61-19.46-18.42-4.6-7.81-6.9-16.69-6.9-26.64s2.23-18.99,6.71-26.73c4.47-7.75,10.64-13.82,18.51-18.23,7.87-4.41,16.84-6.61,26.92-6.61s18.58,2.14,26.26,6.42c7.68,4.28,13.73,10.33,18.14,18.14,4.41,7.81,6.61,17,6.61,27.58,0,1.01-.03,2.14-.09,3.4-.06,1.26-.16,2.46-.28,3.59h-84.07v-15.68h71.6l-9.26,4.91c.12-5.79-1.07-10.89-3.59-15.3-2.52-4.41-5.95-7.87-10.3-10.39-4.35-2.52-9.35-3.78-15.02-3.78s-10.86,1.26-15.21,3.78c-4.35,2.52-7.75,6.02-10.2,10.49-2.46,4.47-3.68,9.73-3.68,15.78v3.78c0,6.05,1.38,11.4,4.16,16.06,2.77,4.66,6.67,8.25,11.71,10.77,5.04,2.52,10.83,3.78,17.38,3.78,5.67,0,10.77-.88,15.3-2.65,4.53-1.76,8.56-4.53,12.09-8.31l12.66,14.55c-4.53,5.29-10.23,9.35-17.1,12.19-6.87,2.83-14.71,4.25-23.52,4.25Z" style="fill: #0084c2;"/>
      <path d="M858.62,185.75c-8.44,0-16.53-1.1-24.28-3.31s-13.89-4.88-18.42-8.03l9.07-17.95c4.53,2.9,9.95,5.29,16.25,7.18,6.3,1.89,12.59,2.83,18.89,2.83,7.43,0,12.81-1.01,16.15-3.02,3.34-2.01,5.01-4.72,5.01-8.12,0-2.77-1.13-4.88-3.4-6.33-2.27-1.45-5.23-2.55-8.88-3.31-3.66-.76-7.72-1.45-12.19-2.08-4.47-.63-8.94-1.48-13.41-2.55-4.47-1.07-8.53-2.65-12.19-4.72-3.65-2.08-6.61-4.88-8.88-8.41-2.27-3.52-3.4-8.19-3.4-13.98,0-6.42,1.82-12,5.48-16.72,3.65-4.72,8.79-8.37,15.4-10.96,6.61-2.58,14.45-3.87,23.52-3.87,6.8,0,13.67,.76,20.59,2.27,6.93,1.51,12.66,3.65,17.19,6.42l-9.07,17.95c-4.79-2.9-9.61-4.88-14.45-5.95-4.85-1.07-9.67-1.61-14.45-1.61-7.18,0-12.5,1.07-15.96,3.21-3.47,2.14-5.2,4.85-5.2,8.12,0,3.02,1.13,5.29,3.4,6.8,2.27,1.51,5.23,2.71,8.88,3.59,3.65,.88,7.71,1.61,12.19,2.17,4.47,.57,8.91,1.42,13.32,2.55,4.41,1.13,8.47,2.68,12.19,4.63,3.71,1.95,6.71,4.69,8.97,8.22,2.27,3.53,3.4,8.12,3.4,13.79,0,6.3-1.86,11.78-5.57,16.44-3.72,4.66-8.97,8.28-15.78,10.86s-14.93,3.87-24.37,3.87Z" style="fill: #0084c2;"/>
      <path d="M911.33,103.19v-18.89h67.26v18.89h-67.26Zm51.39,82.56c-11.08,0-19.65-2.86-25.7-8.6-6.04-5.73-9.07-14.2-9.07-25.41V61.24h23.62v89.93c0,4.79,1.23,8.5,3.68,11.15s5.89,3.97,10.3,3.97c5.29,0,9.7-1.38,13.22-4.16l6.61,16.81c-2.77,2.27-6.17,3.97-10.2,5.1-4.03,1.13-8.19,1.7-12.47,1.7Z" style="fill: #0084c2;"/>
    </g>
    <g>
      <path d="M440.02,341.6h-23.31v-100.72h76.12v18.71h-52.81v82.02Zm-1.73-55.4h48.35v18.71h-48.35v-18.71Z" style="fill: #00508a;"/>
      <path d="M518.3,253.4c-4.13,0-7.48-1.2-10.07-3.6-2.59-2.4-3.89-5.37-3.89-8.92s1.29-6.52,3.89-8.92c2.59-2.4,5.95-3.6,10.07-3.6s7.48,1.13,10.07,3.38c2.59,2.25,3.88,5.16,3.88,8.71,0,3.74-1.27,6.83-3.81,9.28-2.54,2.45-5.93,3.67-10.14,3.67Zm-11.22,88.21v-77.41h22.45v77.41h-22.45Z" style="fill: #00508a;"/>
      <path d="M597.44,263.04c6.14,0,11.63,1.22,16.48,3.67,4.84,2.45,8.66,6.19,11.44,11.22,2.78,5.04,4.17,11.49,4.17,19.35v44.32h-22.45v-40.87c0-6.23-1.37-10.84-4.1-13.81-2.73-2.97-6.6-4.46-11.58-4.46-3.55,0-6.74,.74-9.57,2.23-2.83,1.49-5.04,3.77-6.62,6.83-1.58,3.07-2.37,7-2.37,11.8v38.28h-22.45v-77.41h21.44v21.44l-4.03-6.48c2.78-5.18,6.76-9.16,11.94-11.94,5.18-2.78,11.08-4.17,17.7-4.17Z" style="fill: #00508a;"/>
      <path d="M673.7,342.75c-6.04,0-11.22-1.03-15.54-3.09-4.32-2.06-7.63-4.87-9.93-8.42-2.3-3.55-3.45-7.53-3.45-11.94s1.13-8.63,3.38-12.09c2.25-3.45,5.83-6.16,10.72-8.13,4.89-1.97,11.27-2.95,19.14-2.95h20.58v13.09h-18.13c-5.28,0-8.9,.86-10.86,2.59-1.97,1.73-2.95,3.88-2.95,6.47,0,2.88,1.13,5.16,3.38,6.83,2.25,1.68,5.35,2.52,9.28,2.52s7.1-.89,10.07-2.66c2.97-1.77,5.13-4.39,6.47-7.84l3.45,10.36c-1.63,4.99-4.6,8.78-8.92,11.37-4.32,2.59-9.88,3.89-16.69,3.89Zm23.6-1.15v-15.11l-1.44-3.31v-27.05c0-4.8-1.46-8.54-4.39-11.22-2.93-2.68-7.41-4.03-13.45-4.03-4.12,0-8.18,.65-12.16,1.94-3.98,1.29-7.36,3.05-10.14,5.25l-8.06-15.68c4.22-2.97,9.3-5.27,15.25-6.91,5.95-1.63,11.99-2.45,18.13-2.45,11.8,0,20.96,2.78,27.48,8.35,6.52,5.56,9.78,14.25,9.78,26.04v44.17h-21.01Z" style="fill: #00508a;"/>
      <path d="M785.64,263.04c6.14,0,11.63,1.22,16.48,3.67,4.84,2.45,8.66,6.19,11.44,11.22,2.78,5.04,4.17,11.49,4.17,19.35v44.32h-22.45v-40.87c0-6.23-1.37-10.84-4.1-13.81-2.73-2.97-6.6-4.46-11.58-4.46-3.55,0-6.74,.74-9.57,2.23-2.83,1.49-5.04,3.77-6.62,6.83-1.58,3.07-2.37,7-2.37,11.8v38.28h-22.45v-77.41h21.44v21.44l-4.03-6.48c2.78-5.18,6.76-9.16,11.94-11.94,5.18-2.78,11.08-4.17,17.7-4.17Z" style="fill: #00508a;"/>
      <path d="M876.01,342.75c-8.35,0-15.78-1.7-22.3-5.11-6.52-3.4-11.63-8.13-15.32-14.17-3.69-6.04-5.54-12.9-5.54-20.58s1.85-14.65,5.54-20.65c3.69-5.99,8.8-10.7,15.32-14.1,6.52-3.4,13.96-5.11,22.3-5.11s15.25,1.7,21.3,5.11c6.04,3.41,10.5,8.27,13.38,14.61l-17.41,9.35c-2.01-3.64-4.53-6.33-7.55-8.06-3.02-1.73-6.31-2.59-9.86-2.59-3.84,0-7.29,.86-10.36,2.59-3.07,1.73-5.49,4.17-7.27,7.34-1.78,3.17-2.66,7-2.66,11.51s.89,8.35,2.66,11.51c1.77,3.17,4.2,5.61,7.27,7.34,3.07,1.73,6.52,2.59,10.36,2.59,3.55,0,6.83-.84,9.86-2.52,3.02-1.68,5.54-4.39,7.55-8.13l17.41,9.5c-2.88,6.24-7.34,11.06-13.38,14.46-6.04,3.41-13.14,5.11-21.3,5.11Z" style="fill: #00508a;"/>
      <path d="M961.05,342.75c-8.83,0-16.57-1.73-23.24-5.18-6.67-3.45-11.82-8.18-15.47-14.17-3.65-5.99-5.47-12.83-5.47-20.5s1.8-14.65,5.4-20.65c3.6-5.99,8.51-10.7,14.75-14.1,6.24-3.4,13.29-5.11,21.15-5.11s14.41,1.61,20.5,4.82c6.09,3.21,10.91,7.82,14.46,13.81,3.55,6,5.32,13.17,5.32,21.51,0,.86-.05,1.85-.14,2.95-.1,1.1-.19,2.14-.29,3.09h-62.88v-13.09h51.08l-8.63,3.88c0-4.03-.82-7.53-2.45-10.5-1.63-2.97-3.89-5.3-6.76-6.98-2.88-1.68-6.24-2.52-10.07-2.52s-7.22,.84-10.14,2.52c-2.93,1.68-5.21,4.03-6.83,7.05-1.63,3.02-2.45,6.6-2.45,10.72v3.45c0,4.22,.94,7.94,2.81,11.15,1.87,3.21,4.51,5.66,7.91,7.34,3.4,1.68,7.41,2.52,12.01,2.52,4.12,0,7.75-.62,10.86-1.87,3.12-1.25,5.97-3.12,8.56-5.61l11.94,12.95c-3.55,4.03-8.01,7.12-13.38,9.28-5.37,2.16-11.56,3.24-18.56,3.24Z" style="fill: #00508a;"/>
    </g>
  </g>
  <g id="g" data-name="Слой 2">
    <rect x="379.34" y="51.88" width="6.41" height="289.73" style="fill: #0084c2;"/>
  </g>
</svg>