<svg width="16" height="16" viewBox="0 0 16 16" fill="none" xmlns="http://www.w3.org/2000/svg">
<path fill-rule="evenodd" clip-rule="evenodd" d="M8.00002 12C8.13263 12 8.25981 11.9473 8.35358 11.8536C8.44734 11.7598 8.50002 11.6326 8.50002 11.5V5.70701L10.646 7.85401C10.6925 7.9005 10.7477 7.93737 10.8084 7.96253C10.8692 7.98769 10.9343 8.00064 11 8.00064C11.0658 8.00064 11.1309 7.98769 11.1916 7.96253C11.2523 7.93737 11.3075 7.9005 11.354 7.85401C11.4005 7.80752 11.4374 7.75233 11.4625 7.69159C11.4877 7.63085 11.5007 7.56575 11.5007 7.50001C11.5007 7.43426 11.4877 7.36916 11.4625 7.30843C11.4374 7.24769 11.4005 7.1925 11.354 7.14601L8.35402 4.14601C8.30758 4.09945 8.2524 4.0625 8.19165 4.0373C8.13091 4.01209 8.06579 3.99911 8.00002 3.99911C7.93425 3.99911 7.86913 4.01209 7.80839 4.0373C7.74764 4.0625 7.69247 4.09945 7.64602 4.14601L4.64602 7.14601C4.55213 7.2399 4.49939 7.36723 4.49939 7.50001C4.49939 7.63278 4.55213 7.76012 4.64602 7.85401C4.73991 7.9479 4.86725 8.00064 5.00002 8.00064C5.1328 8.00064 5.26013 7.9479 5.35402 7.85401L7.50002 5.70701V11.5C7.50002 11.6326 7.5527 11.7598 7.64647 11.8536C7.74024 11.9473 7.86741 12 8.00002 12Z" fill="#DEE2E6"/>
</svg>
