<svg width="18" height="18" viewBox="0 0 18 18" fill="none" xmlns="http://www.w3.org/2000/svg">
<path fill-rule="evenodd" clip-rule="evenodd" d="M14.1384 4.83828C14.2025 4.77422 14.2534 4.69816 14.2882 4.61443C14.3229 4.5307 14.3408 4.44095 14.3409 4.35031C14.3409 4.25966 14.3231 4.16989 14.2885 4.08612C14.2539 4.00235 14.2031 3.92622 14.139 3.86208C14.0749 3.79794 13.9989 3.74705 13.9152 3.71231C13.8314 3.67757 13.7417 3.65966 13.651 3.6596C13.5604 3.65955 13.4706 3.67735 13.3868 3.71199C13.3031 3.74662 13.2269 3.79742 13.1628 3.86148L9 8.02428L4.8384 3.86148C4.70887 3.73195 4.53319 3.65918 4.35 3.65918C4.16682 3.65918 3.99114 3.73195 3.8616 3.86148C3.73207 3.99101 3.6593 4.1667 3.6593 4.34988C3.6593 4.53307 3.73207 4.70875 3.8616 4.83828L8.0244 8.99988L3.8616 13.1615C3.79747 13.2256 3.74659 13.3018 3.71188 13.3856C3.67717 13.4694 3.6593 13.5592 3.6593 13.6499C3.6593 13.7406 3.67717 13.8304 3.71188 13.9142C3.74659 13.998 3.79747 14.0741 3.8616 14.1383C3.99114 14.2678 4.16682 14.3406 4.35 14.3406C4.44071 14.3406 4.53052 14.3227 4.61432 14.288C4.69812 14.2533 4.77427 14.2024 4.8384 14.1383L9 9.97548L13.1628 14.1383C13.2923 14.2677 13.468 14.3403 13.651 14.3402C13.8341 14.34 14.0096 14.2672 14.139 14.1377C14.2684 14.0081 14.341 13.8325 14.3409 13.6495C14.3408 13.4664 14.2679 13.2909 14.1384 13.1615L9.9756 8.99988L14.1384 4.83828Z" fill="#7A7A7A"/>
</svg>
