<svg width="18" height="18" viewBox="0 0 18 18" fill="none" xmlns="http://www.w3.org/2000/svg">
<path d="M17.7059 16.2925L14.3147 12.9007C15.41 11.5026 16.0028 9.77654 15.9978 8.00043C15.9978 6.4181 15.5287 4.8713 14.6498 3.55563C13.7708 2.23997 12.5216 1.21453 11.06 0.609C9.59835 0.00346647 7.99004 -0.154969 6.4384 0.15373C4.88677 0.462428 3.4615 1.22439 2.34283 2.34327C1.22416 3.46215 0.46234 4.8877 0.1537 6.43963C-0.154939 7.99156 0.00346581 9.60018 0.608884 11.0621C1.2143 12.524 2.23954 13.7734 3.55496 14.6525C4.87037 15.5316 6.41688 16.0009 7.99891 16.0009C9.77468 16.0059 11.5005 15.4129 12.8982 14.3174L16.2894 17.7093C16.4781 17.8956 16.7326 18 16.9977 18C17.2628 18 17.5172 17.8956 17.7059 17.7093C17.7991 17.6164 17.8731 17.506 17.9236 17.3844C17.974 17.2629 18 17.1325 18 17.0009C18 16.8693 17.974 16.739 17.9236 16.6174C17.8731 16.4959 17.7991 16.3855 17.7059 16.2925ZM1.99973 8.00043C1.99973 6.81368 2.35158 5.65358 3.01077 4.66683C3.66997 3.68008 4.60692 2.91101 5.70312 2.45686C6.79933 2.00271 8.00557 1.88388 9.16929 2.11541C10.333 2.34693 11.402 2.9184 12.241 3.75756C13.08 4.59672 13.6513 5.66588 13.8828 6.82983C14.1143 7.99378 13.9955 9.20024 13.5414 10.2967C13.0874 11.3931 12.3184 12.3302 11.3319 12.9895C10.3453 13.6488 9.18544 14.0008 7.99891 14.0008C6.40851 13.9985 4.88387 13.3657 3.75928 12.2409C2.6347 11.1161 2.00193 9.59114 1.99973 8.00043Z" fill="#E0E0E0"/>
</svg>
