<svg width="80" height="80" viewBox="0 0 80 80" fill="none" xmlns="http://www.w3.org/2000/svg">
<path d="M35.0001 33.3334C36.389 33.3334 37.5701 32.8467 38.5434 31.8734C39.5167 30.9 40.0023 29.72 40.0001 28.3334C40.0001 26.9445 39.5134 25.7634 38.5401 24.79C37.5667 23.8167 36.3867 23.3312 35.0001 23.3334C33.6112 23.3334 32.4301 23.82 31.4567 24.7934C30.4834 25.7667 29.9979 26.9467 30.0001 28.3334C30.0001 29.7223 30.4867 30.9034 31.4601 31.8767C32.4334 32.85 33.6134 33.3356 35.0001 33.3334ZM28.3334 50C29.7223 50 30.9034 49.5134 31.8767 48.54C32.8501 47.5667 33.3356 46.3867 33.3334 45C33.3334 43.6112 32.8467 42.43 31.8734 41.4567C30.9001 40.4834 29.7201 39.9978 28.3334 40C26.9445 40 25.7634 40.4867 24.7901 41.46C23.8167 42.4334 23.3312 43.6134 23.3334 45C23.3334 46.3889 23.8201 47.57 24.7934 48.5434C25.7667 49.5167 26.9467 50.0023 28.3334 50ZM50.0001 53.3334C50.9445 53.3334 51.7367 53.0134 52.3767 52.3734C53.0167 51.7334 53.3356 50.9423 53.3334 50C53.3334 49.0556 53.0134 48.2634 52.3734 47.6234C51.7334 46.9834 50.9423 46.6645 50.0001 46.6667C49.0556 46.6667 48.2634 46.9867 47.6234 47.6267C46.9834 48.2667 46.6645 49.0578 46.6667 50C46.6667 50.9445 46.9867 51.7367 47.6267 52.3767C48.2667 53.0167 49.0579 53.3356 50.0001 53.3334ZM40.0001 73.3334C35.389 73.3334 31.0556 72.4578 27.0001 70.7067C22.9445 68.9556 19.4167 66.5812 16.4167 63.5834C13.4167 60.5834 11.0423 57.0556 9.29342 53C7.54453 48.9445 6.66897 44.6112 6.66675 40C6.66675 35.3334 7.66675 30.7778 9.66675 26.3334C11.6667 21.8889 14.459 18.0556 18.0434 14.8334C21.6234 11.6112 25.8712 9.25005 30.7867 7.75005C35.7023 6.25005 41.0779 6.11116 46.9134 7.33338C46.4134 9.83338 46.5801 12.1812 47.4134 14.3767C48.2467 16.5723 49.4967 18.4189 51.1634 19.9167C52.8301 21.4167 54.8023 22.4445 57.0801 23C59.3579 23.5556 61.7467 23.4167 64.2467 22.5834C62.5245 26.4167 62.8301 29.6945 65.1634 32.4167C67.4967 35.1389 70.1645 36.5556 73.1667 36.6667C73.6667 41.6112 73.139 46.3056 71.5834 50.75C70.0279 55.1945 67.7356 59.0834 64.7067 62.4167C61.6801 65.75 58.0412 68.4034 53.7901 70.3767C49.539 72.35 44.9423 73.3356 40.0001 73.3334ZM40.0001 66.6667C46.7779 66.6667 52.7923 64.3334 58.0434 59.6667C63.2945 55 66.169 49.0556 66.6667 41.8334C63.889 40.6112 61.7079 38.9445 60.1234 36.8334C58.539 34.7223 57.4701 32.3612 56.9167 29.75C52.639 29.1389 48.9723 27.3056 45.9167 24.25C42.8612 21.1945 40.9723 17.5278 40.2501 13.25C35.8056 13.1389 31.9023 13.9445 28.5401 15.6667C25.1779 17.3889 22.3734 19.5978 20.1267 22.2934C17.8734 24.9867 16.1767 27.9167 15.0367 31.0834C13.8967 34.25 13.329 37.2223 13.3334 40C13.3334 47.3889 15.9301 53.6812 21.1234 58.8767C26.3167 64.0723 32.609 66.6689 40.0001 66.6667Z" fill="#4E6297"/>
</svg>
