<svg width="32" height="32" viewBox="0 0 32 32" fill="none" xmlns="http://www.w3.org/2000/svg">
<path d="M15.9999 25.3334C16.3265 25.3335 16.6417 25.4534 16.8858 25.6704C17.1298 25.8874 17.2857 26.1864 17.3239 26.5107L17.3333 26.6667V28.0001C17.3329 28.3399 17.2028 28.6668 16.9695 28.9139C16.7362 29.161 16.4173 29.3097 16.0781 29.3296C15.7388 29.3496 15.4048 29.2392 15.1442 29.0211C14.8836 28.8029 14.7161 28.4935 14.6759 28.1561L14.6666 28.0001V26.6667C14.6666 26.3131 14.8071 25.974 15.0571 25.7239C15.3072 25.4739 15.6463 25.3334 15.9999 25.3334ZM24.4173 22.5467L24.5426 22.6574L25.4759 23.5907C25.7151 23.8307 25.8539 24.1527 25.8643 24.4913C25.8746 24.8299 25.7557 25.1597 25.5316 25.4138C25.3076 25.6679 24.9952 25.8272 24.658 25.8593C24.3207 25.8914 23.9839 25.794 23.7159 25.5868L23.5906 25.4761L22.6573 24.5427C22.4272 24.3131 22.289 24.0072 22.2686 23.6828C22.2482 23.3583 22.347 23.0375 22.5465 22.7809C22.7461 22.5242 23.0325 22.3492 23.352 22.2889C23.6714 22.2286 24.0019 22.2871 24.2813 22.4534L24.4173 22.5467ZM9.34261 22.6574C9.57218 22.887 9.71009 23.1925 9.73047 23.5165C9.75084 23.8405 9.65228 24.1609 9.45328 24.4174L9.34261 24.5427L8.40928 25.4761C8.16934 25.7152 7.84737 25.854 7.50877 25.8644C7.17017 25.8747 6.84033 25.7558 6.58624 25.5317C6.33215 25.3077 6.17287 24.9953 6.14075 24.6581C6.10862 24.3209 6.20606 23.9841 6.41328 23.7161L6.52395 23.5907L7.45728 22.6574C7.70732 22.4075 8.0464 22.267 8.39995 22.267C8.7535 22.267 9.09258 22.4075 9.34261 22.6574ZM5.33328 14.6667C5.67312 14.6671 5.99999 14.7973 6.24711 15.0305C6.49422 15.2638 6.64293 15.5827 6.66284 15.9219C6.68276 16.2612 6.57238 16.5953 6.35426 16.8559C6.13614 17.1165 5.82674 17.2839 5.48928 17.3241L5.33328 17.3334H3.99995C3.66011 17.333 3.33324 17.2029 3.08612 16.9696C2.83901 16.7363 2.6903 16.4175 2.67038 16.0782C2.65047 15.739 2.76085 15.4049 2.97897 15.1443C3.19709 14.8837 3.50649 14.7162 3.84395 14.6761L3.99995 14.6667H5.33328ZM27.9999 14.6667C28.3398 14.6671 28.6667 14.7973 28.9138 15.0305C29.1609 15.2638 29.3096 15.5827 29.3295 15.9219C29.3494 16.2612 29.239 16.5953 29.0209 16.8559C28.8028 17.1165 28.4934 17.2839 28.1559 17.3241L27.9999 17.3334H26.6666C26.3268 17.333 25.9999 17.2029 25.7528 16.9696C25.5057 16.7363 25.357 16.4175 25.3371 16.0782C25.3171 15.739 25.4275 15.4049 25.6456 15.1443C25.8638 14.8837 26.1732 14.7162 26.5106 14.6761L26.6666 14.6667H27.9999ZM8.28395 6.41342L8.40928 6.52408L9.34261 7.45741C9.58174 7.69736 9.72058 8.01933 9.73092 8.35793C9.74126 8.69653 9.62233 9.02637 9.39828 9.28045C9.17424 9.53454 8.86188 9.69382 8.52465 9.72595C8.18742 9.75807 7.8506 9.66063 7.58261 9.45342L7.45728 9.34275L6.52395 8.40942C6.29473 8.17965 6.15719 7.87418 6.1371 7.55026C6.11701 7.22634 6.21576 6.90621 6.41483 6.64989C6.6139 6.39357 6.89962 6.21865 7.21844 6.15794C7.53725 6.09722 7.86727 6.15487 8.14661 6.32008L8.28395 6.41342ZM25.4759 6.52408C25.7055 6.75367 25.8434 7.05914 25.8638 7.38317C25.8842 7.70721 25.7856 8.02754 25.5866 8.28408L25.4759 8.40942L24.5426 9.34275C24.3027 9.58188 23.9807 9.72071 23.6421 9.73105C23.3035 9.74139 22.9737 9.62246 22.7196 9.39842C22.4655 9.17437 22.3062 8.86201 22.2741 8.52478C22.242 8.18755 22.3394 7.85074 22.5466 7.58275L22.6573 7.45741L23.5906 6.52408C23.8407 6.27412 24.1797 6.1337 24.5333 6.1337C24.8868 6.1337 25.2259 6.27412 25.4759 6.52408ZM15.9999 2.66675C16.3265 2.66679 16.6417 2.78669 16.8858 3.0037C17.1298 3.22071 17.2857 3.51975 17.3239 3.84408L17.3333 4.00008V5.33342C17.3329 5.67325 17.2028 6.00012 16.9695 6.24724C16.7362 6.49435 16.4173 6.64306 16.0781 6.66298C15.7388 6.68289 15.4048 6.57252 15.1442 6.35439C14.8836 6.13627 14.7161 5.82688 14.6759 5.48942L14.6666 5.33342V4.00008C14.6666 3.64646 14.8071 3.30732 15.0571 3.05727C15.3072 2.80722 15.6463 2.66675 15.9999 2.66675ZM15.9999 9.33342C17.3062 9.33334 18.5837 9.717 19.6737 10.4367C20.7638 11.1565 21.6184 12.1806 22.1314 13.3819C22.6444 14.5832 22.7931 15.9087 22.5592 17.1938C22.3254 18.479 21.7191 19.6671 20.8157 20.6106C19.9124 21.5541 18.7517 22.2114 17.478 22.5009C16.2042 22.7905 14.8735 22.6994 13.6511 22.2391C12.4286 21.7788 11.3683 20.9695 10.6019 19.9118C9.83545 18.854 9.39664 17.5944 9.33995 16.2894L9.33328 16.0001L9.33995 15.7107C9.41451 13.9944 10.1488 12.3731 11.3896 11.185C12.6304 9.9968 14.282 9.33351 15.9999 9.33342Z" fill="#FFD233"/>
</svg>
